<svg width="22" height="22" viewBox="0 0 22 22" fill="none" xmlns="http://www.w3.org/2000/svg">
<path d="M9.75033 12.2498H1.41699C1.06283 12.2498 0.76602 12.13 0.526576 11.8903C0.286853 11.6505 0.166992 11.3536 0.166992 10.9994C0.166992 10.645 0.286853 10.3482 0.526576 10.109C0.76602 9.86956 1.06283 9.74984 1.41699 9.74984H9.75033V1.4165C9.75033 1.06234 9.87019 0.765532 10.1099 0.526087C10.3496 0.286365 10.6466 0.166504 11.0007 0.166504C11.3552 0.166504 11.652 0.286365 11.8912 0.526087C12.1306 0.765532 12.2503 1.06234 12.2503 1.4165V9.74984H20.5837C20.9378 9.74984 21.2346 9.8697 21.4741 10.1094C21.7138 10.3491 21.8337 10.6461 21.8337 11.0003C21.8337 11.3547 21.7138 11.6515 21.4741 11.8907C21.2346 12.1301 20.9378 12.2498 20.5837 12.2498H12.2503V20.5832C12.2503 20.9373 12.1305 21.2341 11.8907 21.4736C11.651 21.7133 11.3541 21.8332 10.9999 21.8332C10.6455 21.8332 10.3487 21.7133 10.1095 21.4736C9.87005 21.2341 9.75033 20.9373 9.75033 20.5832V12.2498Z" fill="#777777"/>
</svg>
