<svg width="93" height="40" viewBox="0 0 93 40" fill="none" xmlns="http://www.w3.org/2000/svg">
<rect width="93" height="40" rx="20" fill="black"/>
<path d="M24.0605 24.7812H12.7676V23.5303H24.0605V24.7812ZM19.1318 24.0635H17.6348V21.0898H19.1318V24.0635ZM22.7139 18.6699H15.6182V20.9121H14.1006V17.4736H21.2168V15.9287H14.0801V14.6982H22.7139V18.6699ZM23.0078 21.5068H14.1006V20.2695H23.0078V21.5068ZM33.9863 16.291H26.0498V15.0537H33.9863V16.291ZM36.1191 24.5146H24.8672V23.2773H36.1191V24.5146ZM34.6904 16.4551C34.6904 17.207 34.6813 17.8428 34.6631 18.3623C34.6494 18.8818 34.6107 19.4857 34.5469 20.1738C34.4876 20.8574 34.3874 21.6025 34.2461 22.4092L32.6943 22.2793C32.8493 21.5228 32.9609 20.8096 33.0293 20.1396C33.1022 19.4697 33.1455 18.8704 33.1592 18.3418C33.1729 17.8086 33.1797 17.1797 33.1797 16.4551V15.0537H34.6904V16.4551ZM47.248 22.7988H45.7236V13.8711H47.248V22.7988ZM47.5967 25.9844H39.0723V24.7402H47.5967V25.9844ZM40.6035 25.2256H39.0723V21.8965H40.6035V25.2256ZM40.5146 14.6777C41.139 14.6777 41.7041 14.8099 42.21 15.0742C42.7204 15.3385 43.1191 15.7054 43.4062 16.1748C43.6979 16.6442 43.8438 17.1729 43.8438 17.7607C43.8438 18.3623 43.6979 18.9001 43.4062 19.374C43.1191 19.8434 42.7204 20.2103 42.21 20.4746C41.7041 20.7389 41.139 20.8711 40.5146 20.8711C39.8903 20.8711 39.3252 20.7389 38.8193 20.4746C38.318 20.2103 37.9193 19.8434 37.623 19.374C37.3314 18.9001 37.1855 18.3623 37.1855 17.7607C37.1855 17.1729 37.3314 16.6442 37.623 16.1748C37.9193 15.7054 38.318 15.3385 38.8193 15.0742C39.3252 14.8099 39.8903 14.6777 40.5146 14.6777ZM40.5146 16.0107C40.1637 16.0062 39.847 16.0768 39.5645 16.2227C39.2865 16.3639 39.0677 16.569 38.9082 16.8379C38.7487 17.1068 38.6689 17.4144 38.6689 17.7607C38.6689 18.1162 38.7487 18.4307 38.9082 18.7041C39.0677 18.973 39.2865 19.1803 39.5645 19.3262C39.847 19.4674 40.1637 19.5381 40.5146 19.5381C40.861 19.5381 41.1732 19.4674 41.4512 19.3262C41.7292 19.1803 41.9456 18.973 42.1006 18.7041C42.2601 18.4307 42.3398 18.1162 42.3398 17.7607C42.3398 17.4144 42.2601 17.1068 42.1006 16.8379C41.9456 16.569 41.7292 16.3639 41.4512 16.2227C41.1732 16.0768 40.861 16.0062 40.5146 16.0107Z" fill="white"/>
<path d="M71.8308 20L64.298 12.4673C64.0993 12.2686 64.0026 12.0321 64.0078 11.7577C64.0129 11.4834 64.1148 11.2468 64.3135 11.048C64.5122 10.8493 64.7487 10.75 65.023 10.75C65.2973 10.75 65.5339 10.8493 65.7328 11.048L73.3885 18.7193C73.5692 18.9001 73.7031 19.1027 73.7903 19.327C73.8776 19.5513 73.9213 19.7757 73.9213 20C73.9213 20.2243 73.8776 20.4487 73.7903 20.673C73.7031 20.8973 73.5692 21.0999 73.3885 21.2808L65.7173 28.952C65.5186 29.1507 65.2847 29.2474 65.0155 29.2423C64.7462 29.2371 64.5122 29.1352 64.3135 28.9365C64.1148 28.7378 64.0155 28.5013 64.0155 28.227C64.0155 27.9527 64.1148 27.7161 64.3135 27.5173L71.8308 20Z" fill="white"/>
</svg>
