<svg width="24" height="24" viewBox="0 0 24 24" fill="none" xmlns="http://www.w3.org/2000/svg">
<path d="M12 13.0542L6.92701 18.1275C6.78851 18.2658 6.61443 18.3367 6.40476 18.34C6.19526 18.3432 6.01801 18.2723 5.87301 18.1275C5.72818 17.9825 5.65576 17.8068 5.65576 17.6005C5.65576 17.3942 5.72818 17.2185 5.87301 17.0735L10.9463 12.0005L5.87301 6.9275C5.73468 6.789 5.66385 6.61492 5.66051 6.40525C5.65735 6.19575 5.72818 6.0185 5.87301 5.8735C6.01801 5.72867 6.19368 5.65625 6.40001 5.65625C6.60635 5.65625 6.78201 5.72867 6.92701 5.8735L12 10.9467L17.073 5.8735C17.2115 5.73517 17.3856 5.66433 17.5953 5.661C17.8048 5.65783 17.982 5.72867 18.127 5.8735C18.2718 6.0185 18.3443 6.19417 18.3443 6.4005C18.3443 6.60683 18.2718 6.7825 18.127 6.9275L13.0538 12.0005L18.127 17.0735C18.2653 17.212 18.3362 17.3861 18.3395 17.5957C18.3427 17.8053 18.2718 17.9825 18.127 18.1275C17.982 18.2723 17.8063 18.3448 17.6 18.3448C17.3937 18.3448 17.218 18.2723 17.073 18.1275L12 13.0542Z" fill="#333333"/>
</svg>
