<svg width="12" height="12" viewBox="0 0 12 12" fill="none" xmlns="http://www.w3.org/2000/svg">
<path d="M5.99383 11.6673V10.6673H10.4617C10.513 10.6673 10.56 10.6459 10.6027 10.6032C10.6454 10.5605 10.6668 10.5135 10.6668 10.4622V1.53915C10.6668 1.48782 10.6454 1.44082 10.6027 1.39815C10.56 1.35537 10.513 1.33398 10.4617 1.33398H5.99383V0.333984H10.4617C10.7984 0.333984 11.0835 0.450651 11.3168 0.683984C11.5502 0.917318 11.6668 1.20237 11.6668 1.53915V10.4622C11.6668 10.7989 11.5502 11.084 11.3168 11.3173C11.0835 11.5507 10.7984 11.6673 10.4617 11.6673H5.99383ZM5.09 8.84682L4.39766 8.12365L6.02066 6.50065H0.333496V5.50065H6.02066L4.39766 3.87765L5.09 3.15448L7.936 6.00065L5.09 8.84682Z" fill="#333333"/>
</svg>
