<svg width="31" height="30" viewBox="0 0 31 30" fill="none" xmlns="http://www.w3.org/2000/svg">
<path d="M3.4481 29.2946C2.74504 29.2946 2.14727 29.0483 1.65477 28.5558C1.16227 28.0631 0.916016 27.4653 0.916016 26.7625V9.32626C0.916016 8.62349 1.16227 8.02585 1.65477 7.53335C2.14727 7.04085 2.74504 6.7946 3.4481 6.7946H7.58268V2.6596C7.58268 1.95682 7.82893 1.35918 8.32143 0.866679C8.81393 0.374179 9.41171 0.12793 10.1148 0.12793H20.8839C21.587 0.12793 22.1848 0.374179 22.6773 0.866679C23.1698 1.35918 23.416 1.95682 23.416 2.6596V13.4613H27.5506C28.2537 13.4613 28.8514 13.7075 29.3439 14.2C29.8364 14.6925 30.0827 15.2902 30.0827 15.9929V26.7625C30.0827 27.4653 29.8364 28.0631 29.3439 28.5558C28.8514 29.0483 28.2537 29.2946 27.5506 29.2946H17.5827V22.6279H13.416V29.2946H3.4481ZM3.41602 26.7946H7.58268V22.6279H3.41602V26.7946ZM3.41602 20.1279H7.58268V15.9613H3.41602V20.1279ZM3.41602 13.4613H7.58268V9.2946H3.41602V13.4613ZM10.0827 20.1279H14.2493V15.9613H10.0827V20.1279ZM10.0827 13.4613H14.2493V9.2946H10.0827V13.4613ZM10.0827 6.7946H14.2493V2.62793H10.0827V6.7946ZM16.7493 20.1279H20.916V15.9613H16.7493V20.1279ZM16.7493 13.4613H20.916V9.2946H16.7493V13.4613ZM16.7493 6.7946H20.916V2.62793H16.7493V6.7946ZM23.416 26.7946H27.5827V22.6279H23.416V26.7946ZM23.416 20.1279H27.5827V15.9613H23.416V20.1279Z" fill="#333333"/>
</svg>
