<svg width="33" height="32" viewBox="0 0 33 32" fill="none" xmlns="http://www.w3.org/2000/svg">
<path d="M0.666016 29.7436V25.1603C0.666016 24.8311 0.716294 24.5158 0.816849 24.2145C0.917127 23.9133 1.06768 23.626 1.26852 23.3524L14.9448 4.93904L13.3006 2.72446C13.1939 2.58334 13.1207 2.43265 13.081 2.27237C13.0416 2.11209 13.0331 1.95446 13.0556 1.79945C13.0781 1.64473 13.1314 1.49418 13.2156 1.34779C13.3 1.2014 13.4128 1.07473 13.5539 0.967787C13.8467 0.754176 14.1566 0.66987 14.4835 0.71487C14.8105 0.759593 15.0807 0.928344 15.2943 1.22112L16.4993 2.85237L17.7043 1.22112C17.918 0.928344 18.191 0.759593 18.5235 0.71487C18.8557 0.66987 19.1682 0.754176 19.461 0.967787C19.7535 1.18168 19.9223 1.45473 19.9673 1.78696C20.012 2.11918 19.9275 2.43168 19.7139 2.72446L18.0698 4.93904L31.7302 23.3524C31.931 23.626 32.0816 23.9133 32.1818 24.2145C32.2824 24.5158 32.3327 24.8311 32.3327 25.1603V29.7436C32.3327 30.1731 32.1889 30.5314 31.9014 30.8186C31.6142 31.1061 31.2557 31.2499 30.826 31.2499H2.17268C1.74296 31.2499 1.38449 31.1061 1.09727 30.8186C0.809766 30.5314 0.666016 30.1731 0.666016 29.7436ZM16.4993 7.04154L3.16602 24.984V28.7499H8.37435L15.2685 19.112C15.5699 18.6825 15.9802 18.4678 16.4993 18.4678C17.0185 18.4678 17.4288 18.6825 17.7302 19.112L24.6243 28.7499H29.8327V24.984L16.4993 7.04154ZM11.4481 28.7499H21.5506L16.4993 21.6953L11.4481 28.7499ZM17.746 19.112L24.6243 28.7499L17.7302 19.112C17.4288 18.6825 17.0185 18.4678 16.4993 18.4678C15.9802 18.4678 15.5699 18.6825 15.2685 19.112C15.5699 18.6825 15.9828 18.4678 16.5073 18.4678C17.032 18.4678 17.4449 18.6825 17.746 19.112Z" fill="#333333"/>
</svg>
