<svg width="25" height="29" viewBox="0 0 25 29" fill="none" xmlns="http://www.w3.org/2000/svg">
<path d="M12.5 28.8336C9.01278 28.8336 6.05764 27.6221 3.63458 25.199C1.21153 22.776 0 19.8208 0 16.3336C0 13.5153 0.813055 10.7765 2.43917 8.11734C4.06528 5.45818 6.295 3.11998 9.12833 1.10276C9.66444 0.707481 10.2269 0.668036 10.8158 0.984425C11.4044 1.30054 11.6987 1.78554 11.6987 2.43942V3.85276C11.6987 4.87193 12.1132 5.76248 12.9421 6.52443C13.7712 7.28609 14.7489 7.66693 15.875 7.66693C16.3686 7.66693 16.8467 7.57082 17.3092 7.37859C17.7719 7.18637 18.1967 6.91179 18.5833 6.55484C18.8056 6.3304 19.0689 6.19956 19.3733 6.16234C19.6778 6.12484 19.9614 6.20651 20.2242 6.40734C21.7178 7.58262 22.8872 9.04359 23.7325 10.7903C24.5775 12.5372 25 14.385 25 16.3336C25 19.8208 23.7885 22.776 21.3654 25.199C18.9424 27.6221 15.9872 28.8336 12.5 28.8336ZM2.5 16.3336C2.5 18.013 2.90125 19.5761 3.70375 21.0228C4.50597 22.4694 5.60903 23.6361 7.01292 24.5228C6.88903 24.2878 6.80028 24.0532 6.74667 23.819C6.69333 23.5851 6.66667 23.34 6.66667 23.0836C6.66667 22.3122 6.81472 21.5857 7.11083 20.904C7.40667 20.2223 7.83125 19.6048 8.38458 19.0515L12.5 15.0036L16.6313 19.0515C17.1849 19.6048 17.6069 20.2223 17.8975 20.904C18.1881 21.5857 18.3333 22.3122 18.3333 23.0836C18.3333 23.34 18.3067 23.5851 18.2533 23.819C18.1997 24.0532 18.111 24.2878 17.9871 24.5228C19.391 23.6361 20.494 22.4694 21.2962 21.0228C22.0987 19.5761 22.5 18.013 22.5 16.3336C22.5 14.9447 22.2431 13.6322 21.7292 12.3961C21.2153 11.16 20.4722 10.0558 19.5 9.08359C18.9444 9.4447 18.3611 9.71554 17.75 9.89609C17.1389 10.0766 16.5139 10.1669 15.875 10.1669C14.1422 10.1669 12.6439 9.59748 11.38 8.45859C10.1161 7.3197 9.39222 5.90623 9.20833 4.21817C7.04167 6.04095 5.38194 7.99498 4.22917 10.0803C3.07639 12.1658 2.5 14.2503 2.5 16.3336ZM12.5 18.5003L10.125 20.8336C9.81944 21.1391 9.58333 21.4864 9.41667 21.8753C9.25 22.2641 9.16667 22.6669 9.16667 23.0836C9.16667 23.9725 9.49306 24.7364 10.1458 25.3753C10.7986 26.0142 11.5833 26.3336 12.5 26.3336C13.4167 26.3336 14.2014 26.0142 14.8542 25.3753C15.5069 24.7364 15.8333 23.9725 15.8333 23.0836C15.8333 22.6392 15.75 22.2294 15.5833 21.8544C15.4167 21.4794 15.1806 21.1391 14.875 20.8336L12.5 18.5003Z" fill="#1C1C1C"/>
</svg>
