<svg width="28" height="34" viewBox="0 0 28 34" fill="none" xmlns="http://www.w3.org/2000/svg">
<path d="M0.971105 33.9998C0.695651 33.9998 0.464991 33.9066 0.279124 33.7203C0.0930414 33.5342 0 33.3036 0 33.0283V16.8379C0 16.5626 0.0931491 16.332 0.279448 16.1459C0.465746 15.9596 0.696514 15.8664 0.971753 15.8664C1.24721 15.8664 1.47787 15.9596 1.66373 16.1459C1.84982 16.332 1.94286 16.5626 1.94286 16.8379V28.1712H12.6286V20.3998C12.6286 19.87 12.8199 19.4138 13.2027 19.031C13.5854 18.6483 14.0417 18.4569 14.5714 18.4569H22.6667C23.9133 18.4569 24.9805 18.9008 25.8682 19.7887C26.7561 20.6764 27.2 21.7436 27.2 22.9902V33.0283C27.2 33.3036 27.1069 33.5342 26.9206 33.7203C26.7343 33.9066 26.5035 33.9998 26.2282 33.9998C25.9528 33.9998 25.7221 33.9066 25.5363 33.7203C25.3502 33.5342 25.2571 33.3036 25.2571 33.0283V30.114H1.94286V33.0283C1.94286 33.3036 1.84971 33.5342 1.66341 33.7203C1.47711 33.9066 1.24634 33.9998 0.971105 33.9998ZM7.12219 26.3031C6.20171 26.3031 5.41971 25.9808 4.77619 25.3362C4.13267 24.6919 3.81091 23.9093 3.81091 22.9886C3.81091 22.0681 4.13321 21.2861 4.77781 20.6426C5.42219 19.9991 6.20473 19.6773 7.12543 19.6773C8.04591 19.6773 8.82791 19.9996 9.47143 20.6442C10.1149 21.2886 10.4367 22.0712 10.4367 22.9919C10.4367 23.9123 10.1144 24.6943 9.46981 25.3379C8.82543 25.9814 8.04289 26.3031 7.12219 26.3031ZM14.5714 28.1712H25.2571V22.9902C25.2571 22.2779 25.0035 21.668 24.4962 21.1607C23.9889 20.6534 23.379 20.3998 22.6667 20.3998H14.5714V28.1712ZM7.12381 24.3603C7.50742 24.3603 7.83166 24.2278 8.09653 23.963C8.36141 23.6981 8.49385 23.3738 8.49385 22.9902C8.49385 22.6066 8.36141 22.2824 8.09653 22.0175C7.83166 21.7526 7.50742 21.6202 7.12381 21.6202C6.7402 21.6202 6.41596 21.7526 6.15109 22.0175C5.88621 22.2824 5.75377 22.6066 5.75377 22.9902C5.75377 23.3738 5.88621 23.6981 6.15109 23.963C6.41596 24.2278 6.7402 24.3603 7.12381 24.3603Z" fill="#333333"/>
<path d="M16.787 7.48415L19.5641 5.09762L19.8696 5.12111C20.0375 5.14109 20.1683 5.2109 20.2621 5.33055C20.3558 5.45019 20.4027 5.57983 20.4027 5.71946C20.4027 5.79926 20.3878 5.8776 20.358 5.95448C20.3282 6.03149 20.2736 6.09882 20.1942 6.15648L18.1498 7.93797L18.7638 10.6109C18.7716 10.6306 18.7754 10.6529 18.7754 10.6777V10.7445C18.7754 10.9129 18.7175 11.0531 18.6015 11.1651C18.4854 11.2773 18.3476 11.3333 18.1882 11.3333C18.1383 11.3333 18.0859 11.3275 18.031 11.3158C17.9762 11.3041 17.9242 11.2815 17.8752 11.2482L17.6286 11.0954L16.787 7.48415ZM15.1613 2.44533L14.3888 0.632908L14.4946 0.374589C14.5431 0.25469 14.6184 0.162283 14.7204 0.0973699C14.8224 0.0324563 14.9284 0 15.0383 0C15.1483 0 15.2557 0.0308653 15.3606 0.0925968C15.4656 0.154201 15.5426 0.244253 15.5916 0.362752L16.5241 2.57306L15.1613 2.44533ZM10.1018 9.40655L12.5075 7.95554L14.9131 9.42564L14.283 6.67636L16.4023 4.84351L13.6148 4.59531L12.5075 1.99876L11.4001 4.57621L8.61265 4.82441L10.7319 6.67636L10.1018 9.40655ZM8.72873 10.2143L9.45862 7.09047L7.03391 4.98899C6.94673 4.91746 6.88601 4.83651 6.85177 4.74614C6.81753 4.65577 6.80042 4.56533 6.80042 4.47484C6.80042 4.31293 6.85597 4.16255 6.96709 4.02369C7.07821 3.88495 7.23215 3.80527 7.42893 3.78465L10.6297 3.50361L11.8671 0.561121C11.9246 0.42302 12.0138 0.319476 12.1346 0.25049C12.2554 0.181376 12.379 0.146819 12.5056 0.146819C12.6322 0.146819 12.7564 0.181376 12.878 0.25049C12.9999 0.319476 13.0898 0.42302 13.1478 0.561121L14.3852 3.50361L17.586 3.78465C17.7828 3.80527 17.9367 3.88489 18.0478 4.02349C18.1589 4.16223 18.2145 4.31249 18.2145 4.47426C18.2145 4.56667 18.1974 4.65768 18.1631 4.74728C18.1289 4.83689 18.0682 4.91746 17.981 4.98899L15.5563 7.09047L16.2887 10.2145C16.2997 10.2476 16.3053 10.2989 16.3053 10.3682C16.3053 10.5647 16.2364 10.7294 16.0987 10.8623C15.961 10.9952 15.8004 11.0617 15.6168 11.0617C15.5823 11.0617 15.4603 11.0259 15.2508 10.9544L12.5075 9.3023L9.7641 10.9544C9.7053 10.9877 9.64427 11.0139 9.58101 11.033C9.51775 11.0521 9.45735 11.0617 9.39982 11.0617C9.19273 11.0617 9.01441 10.978 8.86486 10.8106C8.7153 10.6431 8.66993 10.4443 8.72873 10.2143Z" fill="#333333"/>
</svg>
