<svg width="33" height="24" viewBox="0 0 33 24" fill="none" xmlns="http://www.w3.org/2000/svg">
<path d="M16.5 22.1666C15.3911 22.1666 14.5706 22.4443 14.0383 22.9999C13.5064 23.5555 12.4797 23.8332 10.9583 23.8332C9.48195 23.8332 8.44986 23.5555 7.86208 22.9999C7.27458 22.4443 6.45944 22.1666 5.41667 22.1666C4.60694 22.1666 3.95528 22.3674 3.46167 22.7691C2.96806 23.1707 2.31944 23.472 1.51583 23.6728C1.17833 23.7625 0.883056 23.6893 0.63 23.4532C0.376667 23.2171 0.25 22.9217 0.25 22.567C0.25 22.2017 0.376667 21.8856 0.63 21.6186C0.883056 21.3514 1.16986 21.1388 1.49042 20.9807C2.02681 20.7199 2.55083 20.4357 3.0625 20.1282C3.57417 19.8205 4.345 19.6666 5.375 19.6666C6.87917 19.6666 7.92778 19.9443 8.52083 20.4999C9.11389 21.0555 9.9125 21.3332 10.9167 21.3332C12.0042 21.3332 12.8317 21.0555 13.3992 20.4999C13.9664 19.9443 15 19.6666 16.5 19.6666C18 19.6666 19.0336 19.9443 19.6008 20.4999C20.1683 21.0555 20.9958 21.3332 22.0833 21.3332C23.0875 21.3332 23.8861 21.0555 24.4792 20.4999C25.0722 19.9443 26.1208 19.6666 27.625 19.6666C28.6869 19.6666 29.4631 19.8177 29.9533 20.1199C30.4439 20.4224 30.9626 20.7093 31.5096 20.9807C31.8301 21.1388 32.1169 21.3514 32.37 21.6186C32.6233 21.8856 32.75 22.2017 32.75 22.567C32.75 22.9217 32.6233 23.2171 32.37 23.4532C32.1169 23.6893 31.8217 23.7625 31.4842 23.6728C30.6806 23.472 30.0267 23.1707 29.5225 22.7691C29.0181 22.3674 28.3717 22.1666 27.5833 22.1666C26.5406 22.1666 25.7254 22.4443 25.1379 22.9999C24.5501 23.5555 23.5181 23.8332 22.0417 23.8332C20.5203 23.8332 19.4936 23.5555 18.9617 22.9999C18.4294 22.4443 17.6089 22.1666 16.5 22.1666ZM6.72458 17.1666C6.11125 17.1666 5.52306 17.0549 4.96 16.8316C4.39694 16.6082 3.90069 16.2766 3.47125 15.8366L2.34625 14.6953C2.11542 14.4645 1.99847 14.1786 1.99542 13.8378C1.99208 13.4973 2.11431 13.203 2.36208 12.9549C2.59292 12.7243 2.87611 12.6048 3.21167 12.5961C3.54694 12.5875 3.83861 12.6986 4.08667 12.9295L5.2275 14.0545C5.42639 14.2531 5.65403 14.4048 5.91042 14.5095C6.16681 14.6142 6.43819 14.6666 6.72458 14.6666H9V8.4324L7.78833 9.33948C7.49583 9.54254 7.19028 9.62004 6.87167 9.57198C6.55333 9.52392 6.28736 9.35351 6.07375 9.06073C5.86014 8.76795 5.77306 8.4624 5.8125 8.14406C5.85222 7.82573 6.01833 7.55976 6.31083 7.34615L14.7179 1.15698C14.9915 0.956147 15.2747 0.808229 15.5675 0.713229C15.86 0.617951 16.1708 0.570312 16.5 0.570312C16.8292 0.570312 17.14 0.617951 17.4325 0.713229C17.7253 0.808229 18.0085 0.956147 18.2821 1.15698L26.6729 7.3299C26.9657 7.54378 27.1361 7.81254 27.1842 8.13615C27.2322 8.45976 27.1494 8.76795 26.9358 9.06073C26.7222 9.35351 26.4476 9.52656 26.1121 9.5799C25.7765 9.63351 25.4625 9.55337 25.17 9.33948L24 8.47406V14.6666H26.2754C26.5618 14.6666 26.8332 14.6142 27.0896 14.5095C27.346 14.4048 27.5736 14.2531 27.7725 14.0545L28.9133 12.9295C29.1442 12.6986 29.43 12.5832 29.7708 12.5832C30.1117 12.5832 30.406 12.7071 30.6538 12.9549C30.8846 13.1857 31 13.4759 31 13.8253C31 14.1745 30.8846 14.4645 30.6538 14.6953L29.5288 15.8203C29.0885 16.2606 28.5896 16.595 28.0321 16.8236C27.4743 17.0523 26.8888 17.1666 26.2754 17.1666H6.72458ZM11.5 14.6666H15.25V12.5832C15.25 12.2285 15.3697 11.9316 15.6092 11.6924C15.8483 11.453 16.1453 11.3332 16.5 11.3332C16.8547 11.3332 17.1517 11.453 17.3908 11.6924C17.6303 11.9316 17.75 12.2285 17.75 12.5832V14.6666H21.5V6.6249L16.8046 3.16656C16.719 3.1024 16.6175 3.07031 16.5 3.07031C16.3825 3.07031 16.281 3.1024 16.1954 3.16656L11.5 6.60906V14.6666Z" fill="#1C1C1C"/>
</svg>
