<svg width="35" height="34" viewBox="0 0 35 34" fill="none" xmlns="http://www.w3.org/2000/svg">
<path d="M17 0.945312C17.3184 0.945312 17.6352 0.992951 17.9505 1.08823C18.2655 1.18323 18.5598 1.33115 18.8334 1.53198L33.545 12.6216C33.8206 12.8355 33.9781 13.1057 34.0175 13.4324C34.057 13.7593 33.9699 14.0692 33.7563 14.362C33.5427 14.6548 33.2724 14.8209 32.9454 14.8603C32.6185 14.9 32.3086 14.8098 32.0159 14.5895L17 3.29156L7.00003 10.8461V25.487C7.00003 25.6367 7.04809 25.7596 7.1442 25.8557C7.24031 25.9518 7.36323 25.9999 7.51295 25.9999H12.1442C12.4989 25.9999 12.796 26.1196 13.0355 26.3591C13.2746 26.5982 13.3942 26.8952 13.3942 27.2499C13.3942 27.6046 13.2746 27.9016 13.0355 28.1407C12.796 28.3802 12.4989 28.4999 12.1442 28.4999H7.51295C6.68184 28.4999 5.97184 28.2056 5.38295 27.617C4.79434 27.0281 4.50003 26.3181 4.50003 25.487V12.7307L2.00004 14.6153C1.72448 14.8184 1.41892 14.9 1.08337 14.8603C0.747813 14.8209 0.47323 14.6548 0.259619 14.362C0.0460076 14.0864 -0.0367705 13.7852 0.0112851 13.4582C0.0593406 13.1313 0.221146 12.861 0.496702 12.6474L15.1667 1.53198C15.4403 1.33115 15.732 1.18323 16.0417 1.08823C16.3514 0.992951 16.6709 0.945312 17 0.945312ZM26.1667 32.7786C24.9573 33.6164 23.702 33.9941 22.4009 33.9116C21.0995 33.8293 19.9648 33.3043 18.9967 32.3366C18.0289 31.3685 17.5039 30.2311 17.4217 28.9245C17.3392 27.6178 17.7168 26.3652 18.5546 25.1666C17.7168 23.9571 17.3392 22.7018 17.4217 21.4007C17.5039 20.0993 18.0289 18.9646 18.9967 17.9966C19.9648 17.0288 21.1021 16.5038 22.4088 16.4216C23.7155 16.3391 24.9681 16.7167 26.1667 17.5545C27.3761 16.7167 28.6314 16.3391 29.9325 16.4216C31.2339 16.5038 32.3686 17.0288 33.3367 17.9966C34.3045 18.9646 34.8295 20.102 34.9117 21.4086C34.9942 22.7153 34.6166 23.968 33.7788 25.1666C34.6166 26.376 34.9942 27.6313 34.9117 28.9324C34.8295 30.2338 34.3045 31.3685 33.3367 32.3366C32.3686 33.3043 31.2313 33.8293 29.9246 33.9116C28.618 33.9941 27.3653 33.6164 26.1667 32.7786ZM26.1667 29.7211L27.8429 30.8782C28.4285 31.2927 29.0663 31.4695 29.7563 31.4086C30.4466 31.3478 31.046 31.0631 31.5546 30.5545C32.0632 30.0459 32.3506 29.4464 32.4167 28.7561C32.4831 28.0661 32.3089 27.4284 31.8942 26.8428L30.7213 25.1666L31.8784 23.4903C32.2928 22.9048 32.4696 22.267 32.4088 21.577C32.3479 20.8867 32.0632 20.2873 31.5546 19.7786C31.046 19.27 30.4466 18.9827 29.7563 18.9166C29.0663 18.8502 28.4285 19.0243 27.8429 19.4391L26.1667 20.612L24.4905 19.4549C23.9049 19.0405 23.2671 18.8636 22.5771 18.9245C21.8868 18.9853 21.2874 19.27 20.7788 19.7786C20.2702 20.2873 19.9828 20.8867 19.9167 21.577C19.8503 22.267 20.0245 22.9048 20.4392 23.4903L21.6121 25.1666L20.455 26.8428C20.0406 27.4284 19.8638 28.0661 19.9246 28.7561C19.9855 29.4464 20.2702 30.0459 20.7788 30.5545C21.2874 31.0631 21.8868 31.3504 22.5771 31.4166C23.2671 31.483 23.9049 31.3088 24.4905 30.8941L26.1667 29.7211ZM26.1667 26.8653C26.6431 26.8653 27.0453 26.7013 27.3734 26.3732C27.7014 26.0452 27.8655 25.643 27.8655 25.1666C27.8655 24.6902 27.7014 24.2879 27.3734 23.9599C27.0453 23.6318 26.6431 23.4678 26.1667 23.4678C25.6903 23.4678 25.2881 23.6318 24.96 23.9599C24.632 24.2879 24.468 24.6902 24.468 25.1666C24.468 25.643 24.632 26.0452 24.96 26.3732C25.2881 26.7013 25.6903 26.8653 26.1667 26.8653Z" fill="#333333"/>
</svg>
