<svg width="36" height="33" viewBox="0 0 36 33" fill="none" xmlns="http://www.w3.org/2000/svg">
<path d="M16.7492 32.8333C16.395 32.8333 16.0982 32.7134 15.8588 32.4737C15.619 32.234 15.4992 31.937 15.4992 31.5828C15.4992 31.2284 15.619 30.9316 15.8588 30.6924C16.0982 30.453 16.395 30.3333 16.7492 30.3333H34.2492C34.6033 30.3333 34.9001 30.4531 35.1396 30.6928C35.3793 30.9326 35.4992 31.2295 35.4992 31.5837C35.4992 31.9381 35.3793 32.2349 35.1396 32.4741C34.9001 32.7135 34.6033 32.8333 34.2492 32.8333H16.7492ZM17.1658 28.3462C17.1658 26.2565 17.8394 24.438 19.1867 22.8908C20.5339 21.3438 22.2214 20.424 24.2492 20.1312V19.2662C24.2492 18.922 24.369 18.6276 24.6087 18.3828C24.8482 18.1384 25.145 18.0162 25.4992 18.0162C25.8431 18.0162 26.1374 18.1384 26.3821 18.3828C26.6268 18.6276 26.7492 18.922 26.7492 19.2662V20.1312C28.7597 20.424 30.4429 21.3438 31.7987 22.8908C33.1546 24.438 33.8325 26.2565 33.8325 28.3462H17.1658ZM20.355 25.8203H30.5762C30.1446 24.8353 29.4762 24.0309 28.5712 23.407C27.6662 22.7831 26.6422 22.4712 25.4992 22.4712C24.3389 22.4712 23.2993 22.7831 22.3804 23.407C21.4618 24.0309 20.7867 24.8353 20.355 25.8203ZM0.53125 15.237V4.33993C0.53125 3.63687 0.7775 3.03909 1.27 2.54659C1.7625 2.05409 2.36028 1.80784 3.06333 1.80784H6.3325C6.88167 1.80784 7.40681 1.99854 7.90792 2.37993C8.40875 2.76132 8.72764 3.22659 8.86458 3.77576V4.09618L20.1658 0.855759C20.4394 0.783259 20.7294 0.744232 21.0358 0.738676C21.3425 0.733398 21.6326 0.781037 21.9062 0.881592L32.6496 4.23701C32.9265 4.3234 33.1449 4.47993 33.3046 4.70659C33.464 4.93354 33.5438 5.18729 33.5438 5.46784V5.74993C33.5438 6.94659 33.1058 7.95618 32.23 8.77868C31.3539 9.60145 30.3068 10.0128 29.0888 10.0128H25.3067V10.9166C25.3067 11.5577 25.1133 12.1335 24.7267 12.6441C24.34 13.1546 23.8432 13.5296 23.2362 13.7691L12.9863 17.5766C12.8132 17.6321 12.6418 17.6781 12.4721 17.7145C12.3021 17.7509 12.1219 17.7691 11.9317 17.7691H3.06333C2.36028 17.7691 1.7625 17.5228 1.27 17.0303C0.7775 16.5378 0.53125 15.9401 0.53125 15.237ZM3.03125 9.78826V15.2691H6.36458V4.30784H3.03125V9.78826ZM8.86458 10.9745V15.2691H12.0442L21.8708 11.6633C22.1569 11.5608 22.3844 11.3877 22.5533 11.1441C22.7222 10.9005 22.8067 10.6249 22.8067 10.3174V10.0128H19.7204L16.0279 11.2403C15.701 11.347 15.3842 11.3203 15.0775 11.1603C14.7711 11.0001 14.5644 10.7478 14.4575 10.4037C14.3506 10.0662 14.3707 9.74826 14.5179 9.44993C14.6649 9.15187 14.9065 8.94951 15.2429 8.84284L19.2621 7.51284H29.0888C29.4029 7.51284 29.7742 7.40923 30.2025 7.20201C30.6311 6.99479 30.8668 6.70729 30.9096 6.33951L20.9608 3.25618L8.86458 6.67951V10.9745Z" fill="#1C1C1C"/>
</svg>
