<svg width="32" height="32" viewBox="0 0 32 32" fill="none" xmlns="http://www.w3.org/2000/svg">
<path d="M3.17893 31.8337C2.33699 31.8337 1.62435 31.542 1.04102 30.9587C0.457682 30.3753 0.166016 29.6627 0.166016 28.8207V3.17991C0.166016 2.33796 0.457682 1.62533 1.04102 1.04199C1.62435 0.458659 2.33699 0.166992 3.17893 0.166992H28.8198C29.6617 0.166992 30.3743 0.458659 30.9577 1.04199C31.541 1.62533 31.8327 2.33796 31.8327 3.17991V28.8207C31.8327 29.6627 31.541 30.3753 30.9577 30.9587C30.3743 31.542 29.6617 31.8337 28.8198 31.8337H3.17893ZM3.17893 29.3337H28.8198C28.9481 29.3337 29.0656 29.2802 29.1723 29.1732C29.2792 29.0666 29.3327 28.9491 29.3327 28.8207V3.17991C29.3327 3.05158 29.2792 2.93407 29.1723 2.82741C29.0656 2.72046 28.9481 2.66699 28.8198 2.66699H3.17893C3.0506 2.66699 2.9331 2.72046 2.82643 2.82741C2.71949 2.93407 2.66602 3.05158 2.66602 3.17991V28.8207C2.66602 28.9491 2.71949 29.0666 2.82643 29.1732C2.9331 29.2802 3.0506 29.3337 3.17893 29.3337ZM7.66602 25.4874H24.3327C25.2493 25.4874 25.9487 25.2064 26.4306 24.6445C26.9123 24.0825 27.1531 23.4234 27.1531 22.667V16.5132C27.1531 15.806 26.9603 15.1585 26.5748 14.5707C26.1889 13.9832 25.6873 13.5431 25.0698 13.2503V11.3207C25.0698 10.0816 24.6317 9.02394 23.7556 8.14782C22.8795 7.27171 21.8218 6.83366 20.5827 6.83366H11.416C10.1768 6.83366 9.11921 7.27171 8.2431 8.14782C7.36699 9.02394 6.92893 10.0816 6.92893 11.3207V13.2503C6.31143 13.5431 5.80977 13.9832 5.42393 14.5707C5.03838 15.1585 4.8456 15.806 4.8456 16.5132V22.667C4.8456 23.5837 5.12657 24.283 5.68852 24.7649C6.25046 25.2466 6.90963 25.4874 7.66602 25.4874ZM7.66602 23.5003C7.41602 23.5003 7.21463 23.4239 7.06185 23.2712C6.90907 23.1184 6.83268 22.917 6.83268 22.667V16.5132C6.83268 16.041 6.9924 15.6452 7.31185 15.3257C7.63129 15.0063 8.02713 14.8466 8.49935 14.8466C8.97157 14.8466 9.3674 15.0063 9.68685 15.3257C10.0063 15.6452 10.166 16.041 10.166 16.5132V19.8466H21.8327V16.5132C21.8327 16.041 21.9924 15.6452 22.3118 15.3257C22.6313 15.0063 23.0271 14.8466 23.4993 14.8466C23.9716 14.8466 24.3674 15.0063 24.6868 15.3257C25.0063 15.6452 25.166 16.041 25.166 16.5132V22.667C25.166 22.917 25.0896 23.1184 24.9368 23.2712C24.7841 23.4239 24.5827 23.5003 24.3327 23.5003H7.66602ZM12.1531 17.8595V16.5132C12.1531 15.558 11.8374 14.7423 11.206 14.0662C10.5746 13.3898 9.81129 13.0153 8.91601 12.9428V11.3207C8.91601 10.5985 9.15213 10.0013 9.62435 9.52907C10.0966 9.05685 10.6938 8.82074 11.416 8.82074H20.5827C21.3049 8.82074 21.9021 9.05685 22.3743 9.52907C22.8466 10.0013 23.0827 10.5985 23.0827 11.3207V12.9428C22.1874 13.0153 21.4241 13.3898 20.7927 14.0662C20.1613 14.7423 19.8456 15.558 19.8456 16.5132V17.8595H12.1531Z" fill="#1C1C1C"/>
</svg>
