<svg width="32" height="31" viewBox="0 0 32 31" fill="none" xmlns="http://www.w3.org/2000/svg">
<path d="M7.63893 8.65342C6.84727 8.65342 6.1731 8.37259 5.61643 7.81092C5.05977 7.24926 4.78143 6.57412 4.78143 5.78551C4.78143 4.99662 5.05977 4.3212 5.61643 3.75926C6.1731 3.19731 6.84727 2.91634 7.63893 2.91634C8.43088 2.91634 9.10879 3.19717 9.67268 3.75884C10.2366 4.32051 10.5185 4.99579 10.5185 5.78468C10.5185 6.57329 10.2366 7.24856 9.67268 7.81051C9.10879 8.37245 8.43088 8.65342 7.63893 8.65342ZM3.17893 30.833C2.35032 30.833 1.64102 30.538 1.05102 29.948C0.461016 29.358 0.166016 28.6487 0.166016 27.8201V17.0188C0.166016 16.5922 0.31046 16.2344 0.599349 15.9455C0.88796 15.6569 1.24574 15.5126 1.67268 15.5126H5.00602V13.5572C5.00602 12.6941 5.30074 11.9709 5.89018 11.3876C6.47963 10.8043 7.20518 10.5126 8.06685 10.5126C8.53685 10.5126 8.97588 10.605 9.38393 10.7897C9.79199 10.9747 10.1584 11.2348 10.4831 11.5701L12.7527 14.0893C12.9896 14.3756 13.2484 14.6348 13.5289 14.8668C13.8092 15.0984 14.107 15.3137 14.4223 15.5126H30.326C30.753 15.5126 31.1107 15.6569 31.3993 15.9455C31.6882 16.2344 31.8327 16.5922 31.8327 17.0188V27.8201C31.8327 28.6487 31.5377 29.358 30.9477 29.948C30.3577 30.538 29.6484 30.833 28.8198 30.833H3.17893ZM27.7402 11.8588C27.4024 11.8588 27.1224 11.7408 26.9002 11.5047C26.678 11.2686 26.5753 10.9816 26.5923 10.6438C26.6309 9.98995 26.5241 9.36287 26.2718 8.76259C26.0196 8.16204 25.6638 7.63204 25.2043 7.17259C24.5143 6.48259 23.9957 5.69523 23.6485 4.81051C23.3013 3.92606 23.1298 3.0137 23.1339 2.07343C23.1339 1.73426 23.2449 1.44273 23.4668 1.19884C23.6885 0.954953 23.9684 0.833008 24.3064 0.833008C24.6445 0.833008 24.9289 0.958008 25.1598 1.20801C25.3903 1.45801 25.4971 1.75176 25.4802 2.08926C25.4416 2.70898 25.5345 3.31648 25.7589 3.91176C25.9834 4.50676 26.322 5.01468 26.7748 5.43551C27.465 6.12579 27.995 6.91592 28.3648 7.80592C28.7345 8.69592 28.9171 9.62481 28.9127 10.5926C28.9127 10.9512 28.8018 11.2519 28.5802 11.4947C28.3582 11.7375 28.0782 11.8588 27.7402 11.8588ZM21.0577 11.8588C20.7196 11.8588 20.4395 11.7408 20.2173 11.5047C19.995 11.2686 19.8925 10.9816 19.9098 10.6438C19.9481 9.9794 19.8412 9.34967 19.5889 8.75467C19.337 8.1594 18.9759 7.63204 18.5056 7.17259C17.8156 6.48259 17.2996 5.69523 16.9577 4.81051C16.6157 3.92606 16.447 3.0137 16.4514 2.07343C16.4514 1.73426 16.5623 1.44273 16.7839 1.19884C17.0059 0.954953 17.2859 0.833008 17.6239 0.833008C17.9617 0.833008 18.2417 0.951063 18.4639 1.18717C18.6862 1.42329 18.7888 1.71009 18.7718 2.04759C18.7332 2.68454 18.8288 3.2962 19.0585 3.88259C19.2882 4.46926 19.6275 4.9869 20.0764 5.43551C20.7773 6.12579 21.3124 6.91592 21.6818 7.80592C22.0516 8.69592 22.2343 9.62481 22.2302 10.5926C22.2302 10.9512 22.1192 11.2519 21.8973 11.4947C21.6756 11.7375 21.3957 11.8588 21.0577 11.8588ZM23.8039 28.333H27.8585V18.0126H23.8039V28.333ZM17.2493 28.333H21.3039V18.0126H17.2493V28.333ZM10.6948 28.333H14.7493V18.0126H10.6948V28.333ZM4.14018 28.333H8.19477V18.0126H4.14018V28.333Z" fill="#1C1C1C"/>
</svg>
