<svg width="10" height="20" viewBox="0 0 10 20" fill="none" xmlns="http://www.w3.org/2000/svg">
<path d="M2.0977 10L9.63045 2.46725C9.82912 2.26858 9.92587 2.03208 9.9207 1.75775C9.91554 1.48342 9.81362 1.24683 9.61495 1.048C9.41629 0.849333 9.17978 0.75 8.90545 0.75C8.63112 0.75 8.39454 0.849333 8.1957 1.048L0.539952 8.71925C0.359286 8.90008 0.225369 9.10267 0.138203 9.327C0.050869 9.55133 0.0072031 9.77567 0.0072031 10C0.0072031 10.2243 0.050869 10.4487 0.138203 10.673C0.225369 10.8973 0.359286 11.0999 0.539952 11.2808L8.2112 18.952C8.40987 19.1507 8.64379 19.2474 8.91295 19.2423C9.18229 19.2371 9.41629 19.1352 9.61495 18.9365C9.81362 18.7378 9.91295 18.5013 9.91295 18.227C9.91295 17.9527 9.81362 17.7161 9.61495 17.5173L2.0977 10Z" fill="#333333"/>
</svg>
