<svg width="20" height="10" viewBox="0 0 20 10" fill="none" xmlns="http://www.w3.org/2000/svg">
<path d="M5.0385 9.53891C3.78283 9.53891 2.7125 9.09641 1.8275 8.21141C0.9425 7.32658 0.5 6.25641 0.5 5.00091C0.5 3.74541 0.9425 2.67508 1.8275 1.78991C2.7125 0.904581 3.78283 0.461914 5.0385 0.461914H8.05775C8.27025 0.461914 8.44833 0.533831 8.592 0.677664C8.73583 0.821498 8.80775 0.999746 8.80775 1.21241C8.80775 1.42491 8.73583 1.603 8.592 1.74666C8.44833 1.89016 8.27025 1.96191 8.05775 1.96191H5.03725C4.19825 1.96191 3.48233 2.25841 2.8895 2.85141C2.2965 3.44441 2 4.16075 2 5.00041C2 5.84008 2.2965 6.55641 2.8895 7.14941C3.48233 7.74241 4.19825 8.03891 5.03725 8.03891H8.05775C8.27025 8.03891 8.44833 8.11083 8.592 8.25466C8.73583 8.3985 8.80775 8.57666 8.80775 8.78916C8.80775 9.00183 8.73583 9.17991 8.592 9.32341C8.44833 9.46708 8.27025 9.53891 8.05775 9.53891H5.0385ZM7 5.75041C6.7875 5.75041 6.60942 5.6785 6.46575 5.53466C6.32192 5.39083 6.25 5.21266 6.25 5.00016C6.25 4.7875 6.32192 4.60941 6.46575 4.46591C6.60942 4.32225 6.7875 4.25041 7 4.25041H13C13.2125 4.25041 13.3906 4.32233 13.5343 4.46616C13.6781 4.61 13.75 4.78816 13.75 5.00066C13.75 5.21333 13.6781 5.39141 13.5343 5.53491C13.3906 5.67858 13.2125 5.75041 13 5.75041H7ZM11.9423 9.53891C11.7298 9.53891 11.5517 9.467 11.408 9.32316C11.2642 9.17933 11.1923 9.00108 11.1923 8.78841C11.1923 8.57591 11.2642 8.39783 11.408 8.25416C11.5517 8.11066 11.7298 8.03891 11.9423 8.03891H14.9628C15.8018 8.03891 16.5177 7.74241 17.1105 7.14941C17.7035 6.55641 18 5.84008 18 5.00041C18 4.16075 17.7035 3.44441 17.1105 2.85141C16.5177 2.25841 15.8018 1.96191 14.9628 1.96191H11.9423C11.7298 1.96191 11.5517 1.89 11.408 1.74616C11.2642 1.60233 11.1923 1.42416 11.1923 1.21166C11.1923 0.998997 11.2642 0.820914 11.408 0.677414C11.5517 0.533747 11.7298 0.461914 11.9423 0.461914H14.9615C16.2172 0.461914 17.2875 0.904413 18.1725 1.78941C19.0575 2.67425 19.5 3.74441 19.5 4.99991C19.5 6.25541 19.0575 7.32575 18.1725 8.21091C17.2875 9.09625 16.2172 9.53891 14.9615 9.53891H11.9423Z" fill="#333333"/>
</svg>
