<svg width="16" height="19" viewBox="0 0 16 19" fill="none" xmlns="http://www.w3.org/2000/svg">
<path d="M7.99917 17.5135C9.95551 15.7622 11.4526 14.0823 12.4904 12.474C13.5283 10.8657 14.0472 9.457 14.0472 8.248C14.0472 6.425 13.468 4.92633 12.3097 3.752C11.1513 2.57767 9.71451 1.9905 7.99917 1.9905C6.28384 1.9905 4.847 2.57767 3.68867 3.752C2.53034 4.92633 1.95117 6.425 1.95117 8.248C1.95117 9.457 2.47009 10.8657 3.50792 12.474C4.54576 14.0823 6.04284 15.7622 7.99917 17.5135ZM7.99917 18.9403C7.80434 18.9403 7.6095 18.9067 7.41467 18.8395C7.21967 18.7722 7.04334 18.668 6.88567 18.527C5.98834 17.7 5.14859 16.8483 4.36642 15.972C3.58442 15.0958 2.90467 14.2199 2.32717 13.3443C1.74951 12.4686 1.29242 11.6007 0.955922 10.7405C0.619422 9.88017 0.451172 9.04933 0.451172 8.248C0.451172 5.94033 1.19759 4.07208 2.69042 2.64325C4.18342 1.21442 5.953 0.5 7.99917 0.5C10.0453 0.5 11.8149 1.21442 13.3079 2.64325C14.8008 4.07208 15.5472 5.94033 15.5472 8.248C15.5472 9.04933 15.3789 9.8785 15.0424 10.7355C14.7059 11.5927 14.2505 12.4607 13.6762 13.3395C13.1017 14.2183 12.4234 15.0943 11.6414 15.9672C10.8594 16.8404 10.0197 17.6904 9.12217 18.5173C8.96684 18.6583 8.79026 18.764 8.59242 18.8345C8.39476 18.905 8.197 18.9403 7.99917 18.9403ZM8.00092 9.86525C8.49842 9.86525 8.92375 9.68808 9.27692 9.33375C9.63025 8.97942 9.80692 8.5535 9.80692 8.056C9.80692 7.5585 9.62976 7.13308 9.27542 6.77975C8.92109 6.42658 8.49509 6.25 7.99742 6.25C7.49992 6.25 7.07459 6.42717 6.72142 6.7815C6.36809 7.13583 6.19142 7.56183 6.19142 8.0595C6.19142 8.557 6.36859 8.98233 6.72292 9.3355C7.07726 9.68867 7.50325 9.86525 8.00092 9.86525Z" fill="#333333"/>
</svg>
