<svg width="16" height="16" viewBox="0 0 16 16" fill="none" xmlns="http://www.w3.org/2000/svg">
<path d="M6.77907 12.475C6.69097 12.4371 6.62074 12.3768 6.56837 12.2942C6.51611 12.2117 6.49542 12.116 6.5063 12.0072L6.82125 8.86011L6.1579 8.79372C5.82711 8.76062 5.5563 8.61521 5.34547 8.35749C5.13454 8.09965 5.04563 7.80533 5.07873 7.47454L5.56896 2.57601C5.60206 2.24522 5.74753 1.97436 6.00537 1.76343C6.26309 1.5526 6.55735 1.46374 6.88814 1.49684L10.0989 1.81816C10.4273 1.85102 10.6815 2.00208 10.8614 2.27134C11.0415 2.54061 11.0744 2.82201 10.96 3.11552L9.78042 6.07041L10.6861 6.16105C11.0458 6.19705 11.2959 6.38249 11.4364 6.71736C11.5769 7.05224 11.5286 7.36029 11.2916 7.64154L7.30354 12.346C7.2323 12.4307 7.14913 12.4829 7.05403 12.5026C6.95882 12.5223 6.86717 12.5131 6.77907 12.475Z" fill="#333333"/>
</svg>
