<svg width="105" height="40" viewBox="0 0 105 40" fill="none" xmlns="http://www.w3.org/2000/svg">
<rect x="0.5" y="0.5" width="104" height="39" rx="7.5" fill="white"/>
<rect x="0.5" y="0.5" width="104" height="39" rx="7.5" stroke="black"/>
<path d="M16.25 25.6342C16.0375 25.6342 15.8594 25.5623 15.7158 25.4185C15.5719 25.2748 15.5 25.0967 15.5 24.884C15.5 24.6715 15.5719 24.4934 15.7158 24.3497C15.8594 24.2062 16.0375 24.1345 16.25 24.1345H31.75C31.9625 24.1345 32.1406 24.2063 32.2843 24.35C32.4281 24.4938 32.5 24.6721 32.5 24.8847C32.5 25.0972 32.4281 25.2753 32.2843 25.419C32.1406 25.5625 31.9625 25.6342 31.75 25.6342H16.25ZM16.25 20.7497C16.0375 20.7497 15.8594 20.6778 15.7158 20.534C15.5719 20.3902 15.5 20.212 15.5 19.9995C15.5 19.7868 15.5719 19.6087 15.7158 19.4652C15.8594 19.3216 16.0375 19.2497 16.25 19.2497H31.75C31.9625 19.2497 32.1406 19.3217 32.2843 19.4655C32.4281 19.6093 32.5 19.7875 32.5 20C32.5 20.2127 32.4281 20.3907 32.2843 20.5342C32.1406 20.6779 31.9625 20.7497 31.75 20.7497H16.25ZM16.25 15.865C16.0375 15.865 15.8594 15.7932 15.7158 15.6495C15.5719 15.5057 15.5 15.3274 15.5 15.1147C15.5 14.9022 15.5719 14.7242 15.7158 14.5805C15.8594 14.437 16.0375 14.3652 16.25 14.3652H31.75C31.9625 14.3652 32.1406 14.4372 32.2843 14.581C32.4281 14.7247 32.5 14.9028 32.5 15.1155C32.5 15.328 32.4281 15.5061 32.2843 15.6497C32.1406 15.7932 31.9625 15.865 31.75 15.865H16.25Z" fill="black"/>
<path d="M54.5479 18.6494H46.1328V14.3633H54.5479V18.6494ZM47.6162 17.4531H53.0439V15.5527H47.6162V17.4531ZM55.9697 21.1855H44.7178V19.9619H55.9697V21.1855ZM51.0889 20.3652H49.5645V18.376H51.0889V20.3652ZM54.5957 26.2031H53.0713V23.4277H45.9619V22.2246H54.5957V26.2031ZM68.0967 21.7666H56.8037V20.543H68.0967V21.7666ZM66.7021 17.3506H59.7432V18.8066H58.2324V16.2432H65.1709V15.3203H58.1982V14.124H66.7021V17.3506ZM66.9414 19.5176H58.2324V18.335H66.9414V19.5176ZM63.1953 21.1992H61.6914V18.9023H63.1953V21.1992ZM66.7705 26.1348H65.2324V23.7559H58.0615V22.5459H66.7705V26.1348ZM74.543 14.5479C75.4089 14.5479 76.1904 14.6937 76.8877 14.9854C77.5895 15.277 78.141 15.6895 78.542 16.2227C78.943 16.7513 79.1436 17.3597 79.1436 18.0479C79.1436 18.736 78.943 19.3467 78.542 19.8799C78.141 20.4131 77.5895 20.8255 76.8877 21.1172C76.1904 21.4043 75.4089 21.5479 74.543 21.5479C73.6771 21.5479 72.8955 21.4043 72.1982 21.1172C71.501 20.8255 70.9495 20.4131 70.5439 19.8799C70.1429 19.3467 69.9424 18.736 69.9424 18.0479C69.9424 17.3597 70.1429 16.7513 70.5439 16.2227C70.9495 15.6895 71.501 15.277 72.1982 14.9854C72.8955 14.6937 73.6771 14.5479 74.543 14.5479ZM74.543 15.7783C73.9414 15.7738 73.4036 15.8649 72.9297 16.0518C72.4557 16.2386 72.0843 16.5052 71.8154 16.8516C71.5511 17.1979 71.4189 17.5967 71.4189 18.0479C71.4189 18.5036 71.5511 18.9023 71.8154 19.2441C72.0843 19.5814 72.4557 19.8434 72.9297 20.0303C73.4036 20.2126 73.9414 20.3037 74.543 20.3037C75.14 20.3037 75.6732 20.2126 76.1426 20.0303C76.612 19.8434 76.9788 19.5814 77.2432 19.2441C77.512 18.9023 77.6465 18.5036 77.6465 18.0479C77.6465 17.5967 77.512 17.1979 77.2432 16.8516C76.9788 16.5052 76.612 16.2386 76.1426 16.0518C75.6732 15.8649 75.14 15.7738 74.543 15.7783ZM80.21 24.665H68.917V23.4209H80.21V24.665ZM92.3096 24.7812H81.0166V23.5303H92.3096V24.7812ZM87.3809 24.0635H85.8838V21.0898H87.3809V24.0635ZM90.9629 18.6699H83.8672V20.9121H82.3496V17.4736H89.4658V15.9287H82.3291V14.6982H90.9629V18.6699ZM91.2568 21.5068H82.3496V20.2695H91.2568V21.5068Z" fill="black"/>
</svg>
